<?xml version="1.0" encoding="UTF-8" standalone="no"?>
<!DOCTYPE svg PUBLIC "-//W3C//DTD SVG 1.0//EN" "http://www.w3.org/TR/2001/PR-SVG-20010719/DTD/svg10.dtd">
<svg width="23cm" height="14cm" viewBox="286 487 455 267" xmlns="http://www.w3.org/2000/svg" xmlns:xlink="http://www.w3.org/1999/xlink">
  <g>
    <g>
      <rect style="fill: #ffffff" x="287.406" y="508.416" width="371.673" height="111.81"/>
      <rect style="fill: none; fill-opacity:0; stroke-width: 2; stroke: #000000" x="287.406" y="508.416" width="371.673" height="111.81"/>
      <rect style="fill: #ffffff" x="287.406" y="488.416" width="40" height="20"/>
      <rect style="fill: none; fill-opacity:0; stroke-width: 2; stroke: #000000" x="287.406" y="488.416" width="40" height="20"/>
      <text font-size="12.7998" style="fill: #000000;text-anchor:start;font-family:monospace;font-style:normal;font-weight:normal" x="289.406" y="503.416">UDP</text>
    </g>
    <g>
      <rect style="fill: #ffffff" x="288.637" y="660.966" width="255.547" height="91.8897"/>
      <rect style="fill: none; fill-opacity:0; stroke-width: 2; stroke: #000000" x="288.637" y="660.966" width="255.547" height="91.8897"/>
      <rect style="fill: #ffffff" x="288.637" y="640.966" width="40" height="20"/>
      <rect style="fill: none; fill-opacity:0; stroke-width: 2; stroke: #000000" x="288.637" y="640.966" width="40" height="20"/>
      <text font-size="12.7998" style="fill: #000000;text-anchor:start;font-family:monospace;font-style:normal;font-weight:normal" x="290.637" y="655.966">IP</text>
    </g>
    <g>
      <rect style="fill: #ffffff" x="295.117" y="535.405" width="97.1592" height="54.7484"/>
      <rect style="fill: none; fill-opacity:0; stroke-width: 2; stroke: #000000" x="295.117" y="535.405" width="97.1592" height="54.7484"/>
      <rect style="fill: #ffffff" x="295.117" y="515.405" width="40" height="20"/>
      <rect style="fill: none; fill-opacity:0; stroke-width: 2; stroke: #000000" x="295.117" y="515.405" width="40" height="20"/>
      <text font-size="12.7998" style="fill: #000000;text-anchor:start;font-family:monospace;font-style:normal;font-weight:normal" x="297.117" y="530.405">API</text>
    </g>
    <g>
      <rect style="fill: #ffffff" x="297.119" y="687.955" width="97.1592" height="52.5634"/>
      <rect style="fill: none; fill-opacity:0; stroke-width: 2; stroke: #000000" x="297.119" y="687.955" width="97.1592" height="52.5634"/>
      <rect style="fill: #ffffff" x="297.119" y="667.955" width="40" height="20"/>
      <rect style="fill: none; fill-opacity:0; stroke-width: 2; stroke: #000000" x="297.119" y="667.955" width="40" height="20"/>
      <text font-size="12.7998" style="fill: #000000;text-anchor:start;font-family:monospace;font-style:normal;font-weight:normal" x="299.119" y="682.955">API</text>
    </g>
    <g>
      <rect style="fill: #ffffff" x="424.662" y="668.035" width="98.2" height="28"/>
      <rect style="fill: none; fill-opacity:0; stroke-width: 2; stroke: #000000" x="424.662" y="668.035" width="98.2" height="28"/>
      <text font-size="16" style="fill: #000000;text-anchor:middle;font-family:sans-serif;font-style:normal;font-weight:700" x="473.762" y="687.035">controller</text>
      <rect style="fill: #ffffff" x="424.662" y="696.035" width="98.2" height="8"/>
      <rect style="fill: none; fill-opacity:0; stroke-width: 2; stroke: #000000" x="424.662" y="696.035" width="98.2" height="8"/>
      <rect style="fill: #ffffff" x="424.662" y="704.035" width="98.2" height="8"/>
      <rect style="fill: none; fill-opacity:0; stroke-width: 2; stroke: #000000" x="424.662" y="704.035" width="98.2" height="8"/>
    </g>
    <g>
      <rect style="fill: #ffffff" x="421.267" y="519.132" width="229.45" height="28"/>
      <rect style="fill: none; fill-opacity:0; stroke-width: 2; stroke: #000000" x="421.267" y="519.132" width="229.45" height="28"/>
      <text font-size="16" style="fill: #000000;text-anchor:middle;font-family:sans-serif;font-style:normal;font-weight:700" x="535.992" y="538.132">controller&lt;LowerLayer&gt;</text>
      <rect style="fill: #ffffff" x="421.267" y="547.132" width="229.45" height="8"/>
      <rect style="fill: none; fill-opacity:0; stroke-width: 2; stroke: #000000" x="421.267" y="547.132" width="229.45" height="8"/>
      <rect style="fill: #ffffff" x="421.267" y="555.132" width="229.45" height="8"/>
      <rect style="fill: none; fill-opacity:0; stroke-width: 2; stroke: #000000" x="421.267" y="555.132" width="229.45" height="8"/>
    </g>
    <g>
      <polygon style="fill: #ffffff" points="552.666,663.408 728.066,663.408 740.066,675.408 740.066,729.408 552.666,729.408 "/>
      <polygon style="fill: none; fill-opacity:0; stroke-width: 2; stroke: #000000" points="552.666,663.408 728.066,663.408 740.066,675.408 740.066,729.408 552.666,729.408 "/>
      <polyline style="fill: none; fill-opacity:0; stroke-width: 1; stroke: #000000" points="728.066,663.408 728.066,675.408 740.066,675.408 "/>
      <text font-size="12.7998" style="fill: #000000;text-anchor:start;font-family:monospace;font-style:normal;font-weight:normal" x="559.666" y="688.308">
        <tspan x="559.666" y="688.308">udp::controller expect</tspan>
        <tspan x="559.666" y="704.308">LowerLayer to </tspan>
        <tspan x="559.666" y="720.308">implement ip::api</tspan>
      </text>
    </g>
    <text font-size="12.7998" style="fill: #000000;text-anchor:start;font-family:sans-serif;font-style:normal;font-weight:normal" x="646.366" y="696.408">
      <tspan x="646.366" y="696.408"></tspan>
    </text>
    <text font-size="12.7998" style="fill: #000000;text-anchor:start;font-family:sans-serif;font-style:normal;font-weight:normal" x="416.41" y="706.911">
      <tspan x="416.41" y="706.911"></tspan>
    </text>
    <text font-size="12.7998" style="fill: #000000;text-anchor:start;font-family:sans-serif;font-style:normal;font-weight:normal" x="307.144" y="705.755">
      <tspan x="307.144" y="705.755">callbacks</tspan>
    </text>
    <text font-size="12.7998" style="fill: #000000;text-anchor:start;font-family:sans-serif;font-style:normal;font-weight:normal" x="302.288" y="554.707">
      <tspan x="302.288" y="554.707">callbacks</tspan>
    </text>
    <g>
      <polyline style="fill: none; fill-opacity:0; stroke-width: 2; stroke-dasharray: 8; stroke: #000000" points="535.992,564.137 535.992,612.086 473.762,612.086 473.762,661.329 "/>
      <polyline style="fill: none; fill-opacity:0; stroke-width: 2; stroke: #000000" points="468.762,648.682 473.762,664.682 478.762,648.682 "/>
    </g>
  </g>
</svg>
